<mxfile host="app.diagrams.net" modified="2021-10-26T12:42:05.230Z" agent="5.0 (X11)" etag="Y7KFVzOrr7Ugbf4n-Ev7" version="15.5.9" type="github">
  <diagram id="Kov3oZdJt8vPXKoNyL5-" name="Page-1">
    <mxGraphModel dx="1029" dy="632" grid="1" gridSize="10" guides="1" tooltips="1" connect="1" arrows="1" fold="1" page="1" pageScale="1" pageWidth="827" pageHeight="1169" math="0" shadow="0">
      <root>
        <mxCell id="0" />
        <mxCell id="1" parent="0" />
        <mxCell id="YjW6c7i_GBq9R-pZGp5B-1" value="&lt;div&gt;CÃ¡mara&lt;/div&gt;" style="whiteSpace=wrap;html=1;aspect=fixed;" vertex="1" parent="1">
          <mxGeometry x="80" y="120" width="80" height="80" as="geometry" />
        </mxCell>
        <mxCell id="YjW6c7i_GBq9R-pZGp5B-2" value="MP3" style="whiteSpace=wrap;html=1;aspect=fixed;" vertex="1" parent="1">
          <mxGeometry x="400" y="120" width="80" height="80" as="geometry" />
        </mxCell>
        <mxCell id="YjW6c7i_GBq9R-pZGp5B-5" value="&lt;div&gt;Ultrasonido&lt;br&gt;&lt;/div&gt;" style="whiteSpace=wrap;html=1;aspect=fixed;" vertex="1" parent="1">
          <mxGeometry x="240" y="120" width="80" height="80" as="geometry" />
        </mxCell>
        <mxCell id="YjW6c7i_GBq9R-pZGp5B-6" value="Ruedas" style="whiteSpace=wrap;html=1;aspect=fixed;" vertex="1" parent="1">
          <mxGeometry x="560" y="120" width="80" height="80" as="geometry" />
        </mxCell>
      </root>
    </mxGraphModel>
  </diagram>
</mxfile>
